HIERARCHY
ROOT Hips
{
  OFFSET 1.20581 72.9956 1.4236
  CHANNELS 6 Xposition Yposition Zposition Zrotation Xrotation Yrotation
  JOINT Spine
  {
    OFFSET -0.000355721 21.3001 -0.016921
    CHANNELS 3 Zrotation Xrotation Yrotation
    JOINT LeftArm
    {
      OFFSET 13.5181 21.3012 0
      CHANNELS 3 Zrotation Xrotation Yrotation
      JOINT LeftForeArm
      {
        OFFSET 24.5783 0 0
        CHANNELS 3 Zrotation Xrotation Yrotation
        JOINT LeftHand
        {
          OFFSET 24.5783 0 0
          CHANNELS 3 Zrotation Xrotation Yrotation
          End Site
          {
            OFFSET 7.32568 1.52588e-05 0.0169305
          }
        }
      }
    }
    JOINT Head
    {
      OFFSET 0 27.4458 -0.00489235
      CHANNELS 3 Zrotation Xrotation Yrotation
      End Site
      {
        OFFSET 0 0 0
      }
    }
    JOINT RightArm
    {
      OFFSET -13.5174 21.3012 0
      CHANNELS 3 Zrotation Xrotation Yrotation
      JOINT RightForeArm
      {
        OFFSET -24.5783 0 0
        CHANNELS 3 Zrotation Xrotation Yrotation
        JOINT RightHand
        {
          OFFSET -24.5783 0 0
          CHANNELS 3 Zrotation Xrotation Yrotation
          End Site
          {
            OFFSET -7.32568 1.52588e-05 0.0169305
          }
        }
      }
    }
  }
  JOINT RightUpLeg
  {
    OFFSET -8.44614 -9.41038 0.835684
    CHANNELS 3 Zrotation Xrotation Yrotation
    JOINT RightLeg
    {
      OFFSET 0 -40.9639 0
      CHANNELS 3 Zrotation Xrotation Yrotation
      JOINT RightFoot
      {
        OFFSET 0 -40.9639 0
        CHANNELS 3 Zrotation Xrotation Yrotation
        End Site
        {
          OFFSET 0.50614 -9.67405 14.6709
        }
      }
    }
  }
  JOINT LeftUpLeg
  {
    OFFSET 8.44614 -9.41038 0.835684
    CHANNELS 3 Zrotation Xrotation Yrotation
    JOINT LeftLeg
    {
      OFFSET 0 -40.9639 0
      CHANNELS 3 Zrotation Xrotation Yrotation
      JOINT LeftFoot
      {
        OFFSET 0 -40.9639 0
        CHANNELS 3 Zrotation Xrotation Yrotation
        End Site
        {
          OFFSET -0.50614 -9.67405 14.6709
        }
      }
    }
  }
}
MOTION
Frames:	19
Frame Time:	0.0333333
1.20591 72.9956 1.42351 -6.12454 17.3407 -6.5871 -7.36574 8.64122 15.4395 -48.4036 -28.5017 29.9435 1.45124e-05 -4.22485e-06 -10.7213 19.9183 7.84777 -23.6916 15.6044 -2.15701 -3.3026 5.43451 -18.1827 94.0739 -4.24823e-05 5.76012e-16 94.7088 -10.6714 12.9651 23.2452 8.50044 6.81978 -13.5926 13.6596 43.0912 -20.085 7.75996 -54.567 -7.98244 18.6989 -80.5592 16.351 -3.16771 53.7054 7.6666 22.0483 -17.072 28.8615 
0.990768 72.9374 2.00695 -6.99254 16.7778 -6.62498 -7.52652 8.61295 15.5896 -37.6674 -32.1453 31.8964 1.46121e-05 -4.24252e-06 -9.37154 25.0907 8.66683 -21.9224 16.5171 -1.88143 -3.36621 5.22735 -20.8421 97.7492 -4.24823e-05 -5.96354e-16 87.7321 -13.6691 13.6525 28.3419 8.79185 7.90041 -13.6004 13.7325 43.0297 -20.1257 9.64131 -51.2458 -7.10258 23.5535 -80.2067 21.0114 -3.05457 55.5365 6.9963 22.1122 -18.2961 29.1927 
0.793177 73.4999 3.27146 -8.08625 16.1551 -6.32907 -7.60919 8.77488 15.5327 -22.7522 -35.3134 32.0581 1.42104e-05 -4.15633e-06 -14.8479 32.1442 7.12226 -24.8823 17.3019 -0.682537 -4.1005 5.85629 -23.6272 101.055 -4.24823e-05 0 72.8595 -21.073 14.802 37.4872 10.4395 10.6415 -14.9786 11.7965 39.8364 -14.3601 4.49867 -45.48 -12.0404 25.9183 -78.9244 23.4829 -2.58889 56.9865 5.65082 22.3658 -20.0471 29.611 
0.396611 74.9094 5.14898 -9.50893 15.0118 -5.5614 -7.77618 9.26949 15.2024 -7.74759 -40.7211 28.5129 1.33645e-05 -3.83345e-06 -26.9353 38.6436 4.76299 -31.9345 18.292 1.55314 -5.29272 7.85667 -25.6824 104.981 -4.24823e-05 -4.96962e-16 52.6408 -32.5179 14.1475 48.4105 13.1293 11.7535 -16.804 10.3246 39.4847 -7.95521 -6.16594 -33.2791 -19.9031 25.386 -75.9819 23.1821 -1.74099 57.5027 3.37036 22.6704 -22.107 30.0832 
-0.190479 77.2696 7.42083 -11.3956 12.7478 -4.37162 -7.83019 10.1857 14.5962 1.67509 -48.1197 20.5674 1.24668e-05 -3.22368e-06 -41.4349 42.2743 3.36923 -40.5276 19.5826 4.66073 -6.5416 10.8696 -25.7609 109.078 -4.24823e-05 -1.51573e-15 32.8694 -43.8982 11.7982 57.4097 14.8914 8.07474 -18.1164 12.7754 48.9013 -11.5187 -11.0002 -20.1096 -25.6972 23.2378 -70.5422 21.1314 -0.644057 56.4251 0.225044 22.9485 -24.0983 30.4677 
-0.559711 80.204 9.66639 -13.5794 9.47531 -3.22904 -7.40264 11.3598 13.8536 1.57623 -53.0743 7.3519 1.18751e-05 -2.58354e-06 -53.0702 43.5254 3.9972 -48.6426 20.6778 7.96186 -7.20339 13.0208 -23.9922 111.04 -4.24823e-05 -2.5345e-15 19.5332 -51.001 9.8627 62.1292 14.877 0.705924 -19.5006 20.6762 62.5022 -25.2136 -10.8433 -11.889 -28.4409 21.4034 -63.0466 19.086 0.441748 53.5094 -2.96003 23.0833 -25.4873 30.5262 
-0.331025 83.1528 11.5846 -15.7161 6.50221 -2.69872 -6.34612 12.4018 13.238 -3.87774 -52.0738 -8.451 1.15803e-05 -2.13566e-06 -60.2196 45.7905 5.25293 -56.127 20.9057 10.4163 -6.64164 12.9989 -22.3447 109.78 -4.24823e-05 -9.93923e-17 13.9884 -53.0412 9.31061 62.5419 12.3239 -11.9669 -21.5774 47.2801 76.8277 -54.655 -10.1417 -10.7117 -27.5305 20.3785 -55.4246 17.5846 1.38277 49.1121 -5.18244 22.962 -25.9695 30.2242 
0.301459 85.7974 12.9869 -17.7429 4.90461 -2.85378 -4.87169 13.0723 13.1152 -6.73325 -46.6785 -22.473 1.14542e-05 -1.89838e-06 -63.8008 50.5955 4.62662 -62.0864 20.396 11.4028 -5.42141 11.6875 -22.1696 106.316 -4.24823e-05 1.98785e-16 12.6843 -51.6525 9.26664 59.0909 7.35139 -29.927 -24.3754 122.695 79.1287 -130.941 -10.087 -9.89025 -21.4535 20.2555 -49.1069 16.7244 2.06991 43.5417 -6.34531 22.5543 -25.2677 29.7361 
0.888577 87.6494 13.5426 -19.7456 3.58153 -2.93881 -3.45063 13.5953 13.5911 -6.78576 -40.142 -36.5967 1.14617e-05 -1.91358e-06 -63.5748 53.9452 2.32729 -63.166 20.7004 11.5569 -5.48553 11.1896 -22.1977 101.562 -4.24823e-05 -5.96354e-16 11.651 -48.4014 7.54396 51.0907 -0.234477 -47.3897 -28.2846 147.041 73.5291 -153.574 -10.7928 -9.84373 -15.9623 20.6958 -44.204 16.3128 2.53307 38.4146 -7.48432 22.1186 -23.8205 29.2659 
1.00027 88.2989 13.4541 -21.7925 -0.101375 -1.80412 -2.08455 14.4001 14.1526 -8.87184 -32.2015 -54.3647 1.16037e-05 -2.17608e-06 -59.5972 51.8783 -0.225619 -57.9349 23.6268 12.5432 -8.36091 12.8968 -19.1391 94.8013 -4.24823e-05 3.67752e-15 9.86248 -45.3033 1.5239 39.8478 -12.1437 -58.3258 -34.6435 154.097 69.8827 -152.272 -10.0363 -14.2169 -15.4707 21.3332 -39.8169 16.12 2.8736 36.9391 -9.65613 22.1519 -23.662 28.6112 
0.484437 87.7342 13.6357 -23.644 -7.47311 0.77766 -0.577462 15.5667 14.1699 -14.6075 -19.2923 -72.8647 1.17454e-05 -2.40132e-06 -56.0507 47.6489 -1.02408 -45.3751 29.4525 15.4848 -14.5141 17.7399 -11.1641 84.3313 -4.24823e-05 2.23633e-16 7.91034 -44.0549 -6.66084 31.6955 -28.7693 -64.8855 -46.0525 163.668 64.5628 -154.389 -8.1659 -23.6609 -17.3959 22.383 -35 16.0645 3.23791 40.9454 -11.9759 22.7473 -26.7569 26.7553 
-0.547125 86.3075 15.3006 -24.6514 -17.4303 4.10078 0.578781 16.7216 13.363 -19.8741 -1.12743 -84.2698 1.16456e-05 -2.2459e-06 -58.5124 47.3066 2.83621 -31.9477 37.4186 20.2282 -22.8566 27.6908 -0.581209 69.0157 -4.24823e-05 -9.93923e-17 5.89411 -41.7956 -9.89894 31.586 -65.9445 -69.9046 -78.9833 173.108 57.8398 -163.636 -11.068 -36.1097 -18.0969 24.3437 -29.1493 15.9808 3.86841 48.9842 -12.8444 23.2864 -33.405 22.7512 
-1.65514 84.8142 18.8439 -24.4157 -28.2337 7.42031 1.01565 17.4578 11.8697 -18.6522 18.6477 -88.526 1.135e-05 -1.67005e-06 -67.1455 49.6688 11.5961 -24.2278 45.8682 25.7278 -32.8735 44.652 6.72077 48.895 -4.24823e-05 1.59028e-15 3.90525 -37.8689 -5.82316 35.8442 -109.158 -62.832 -118.066 179.342 56.6929 -168.356 -23.5805 -46.2502 -23.9032 27.1715 -21.1355 15.1802 4.80841 56.9092 -11.8039 21.7181 -42.4503 15.8 
-2.1442 83.892 23.5561 -22.2642 -38.9221 10.8801 0.787612 17.6522 9.76952 -5.70612 36.5386 -96.1846 1.11246e-05 -9.75751e-07 -76.884 47.9068 20.9764 -20.7206 52.3778 31.1675 -43.5094 64.1242 4.65128 26.238 -4.24823e-05 -4.77083e-15 2.62793 -34.578 3.39905 36.7487 -118.656 -56.0824 -127.884 -174.607 69.4995 -174.601 -32.3029 -53.0941 -31.5875 29.5804 -10.2566 13.0237 5.72576 61.6448 -7.81963 15.5229 -51.5896 4.7627 
-1.94552 83.9318 28.5362 -16.694 -48.594 16.2719 -0.0577162 17.3148 7.17974 17.7054 44.4815 -114.83 1.10345e-05 -4.35803e-07 -84.183 38.1993 24.3875 -13.9985 55.4281 35.8345 -52.8047 73.6305 -7.39377 3.70004 -4.24823e-05 -1.31198e-14 2.50413 -31.3588 17.4903 34.4756 -103.597 -61.3381 -116.414 -20.1003 79.6568 28.0334 -13.2464 -53.3482 -25.3956 31.1046 2.87756 10.1921 5.93258 61.5827 -4.39299 6.21122 -57.6568 -8.30385 
-1.88617 84.9676 33.9753 -6.73969 -56.0321 26.2679 -1.27924 16.4492 4.26557 34.3748 37.8983 -130.442 1.10127e-05 -4.7592e-08 -89.3658 29.0196 16.3927 -3.74692 55.7524 38.6327 -59.8202 66.0707 -23.9385 -19.354 -4.24823e-05 -1.59028e-15 3.23043 -30.1035 33.1782 36.0381 -59.4195 -61.7236 -72.0345 -6.78861 37.7252 7.15681 11.5073 -33.1667 -14.6846 34.0131 15.7959 6.82374 5.36213 57.5601 -5.02744 -1.91492 -59.7755 -18.4146 
-2.00611 86.4885 39.6229 5.13587 -61.2259 40.1844 -2.1278 15.3064 1.47532 36.1717 25.3948 -134.479 1.1018e-05 2.20045e-07 -92.9334 30.3126 0.390526 2.58349 55.5371 39.295 -63.318 45.5015 -38.2072 -43.2926 -4.24823e-05 -9.54166e-15 4.09636 -34.6282 42.9321 42.5262 -32.7261 -46.7453 -43.4924 -8.32235 -0.00624911 0.848555 16.7707 -5.0499 -18.3833 40.5826 25.8359 1.26102 4.64697 51.8149 -8.14955 -6.32944 -59.4988 -23.7795 
-2.0899 87.7179 44.0303 16.1282 -65.2322 54.8537 -2.81961 14.3844 -0.680723 31.2354 15.3321 -135.714 1.10223e-05 2.91353e-07 -93.8852 35.4012 -13.145 2.42092 54.8327 38.3114 -61.6144 19.5518 -41.1704 -68.6863 -4.24823e-05 0 4.28142 -39.7624 44.9715 45.1615 -32.4479 -40.5368 -39.3359 -9.92096 0.0303314 -0.395157 17.4686 0.268338 -21.68 50.1281 30.5353 -6.57634 4.12621 47.2583 -11.9821 -8.86761 -56.5005 -25.815 
-2.06055 88.3455 46.3315 23.1741 -69.0028 64.3989 -3.37436 13.8629 -1.09673 26.508 11.053 -138.406 1.10144e-05 1.30467e-07 -91.7387 36.9369 -16.7029 -1.86565 53.0275 35.6003 -56.239 2.66984 -30.1585 -85.5403 -4.24823e-05 -3.18055e-15 3.31745 -41.599 43.0245 41.011 -30.2268 -35.8562 -37.7201 -9.15986 4.76759 2.79112 16.9706 0.29212 -24.3935 58.1256 32.5608 -13.2679 3.87079 43.9715 -12.4381 -10.3686 -54.3288 -24.934 
